<svg width="489" height="17" viewBox="0 0 489 17" fill="none" xmlns="http://www.w3.org/2000/svg">
<g clip-path="url(#clip0_125_673)">
<path opacity="0.07" d="M23.5096 0H2.01511C0.873214 0 0 0.873214 0 2.01511V14.1058C0 15.2477 0.940385 16.1209 2.01511 16.1209H23.5096C24.6515 16.1209 25.5247 15.2477 25.5247 14.1058V2.01511C25.5247 0.873214 24.5843 0 23.5096 0Z" fill="black"/>
<path d="M23.5098 0.671692C24.2487 0.671692 24.8532 1.27622 24.8532 2.0151V14.1058C24.8532 14.8446 24.2487 15.4492 23.5098 15.4492H2.01528C1.27641 15.4492 0.671875 14.8446 0.671875 14.1058V2.0151C0.671875 1.27622 1.27641 0.671692 2.01528 0.671692H23.5098Z" fill="#006FCF"/>
<path d="M6.02605 6.89702L6.54595 8.15713H5.51018L6.02605 6.89702ZM16.8237 6.94941H14.824V7.50491H16.7914V8.33715H14.828V8.95646H16.8277V9.45285L18.2228 7.94488L16.8277 6.37309L16.8237 6.94941ZM7.37752 5.37763H10.061L10.6568 6.67737L11.2089 5.3736H18.1745L18.8986 6.17292L19.6475 5.3736H22.8468L20.4831 7.961L22.8227 10.5323H19.5756L18.8516 9.73295L18.0959 10.5323H6.73738L6.40556 9.73295H5.64654L5.31404 10.5323H2.68701L4.89423 5.3736H7.19817L7.37752 5.37763ZM13.1965 6.10172H11.6925L10.685 8.47687L9.59346 6.10172H8.10094V9.33262L6.71723 6.10172H5.37853L3.77853 9.80415H4.82303L5.15485 9.00482H6.89859L7.23041 9.80415H9.05745V7.161L10.2336 9.80818H11.0329L12.2017 7.16906V9.80885H13.181L13.1972 6.10105L13.1965 6.10172ZM19.4702 7.961L21.1703 6.10172H19.9464L18.871 7.26108L17.8312 6.10172H13.8722V9.80818H17.7748L18.8589 8.64076L19.8987 9.80818H21.1582L19.4709 7.961H19.4702Z" fill="white"/>
</g>
<g clip-path="url(#clip1_125_673)">
<path d="M53.9961 0H33.3249C33.2388 0 33.1525 0 33.0666 0.000456402C32.994 0.00106494 32.9216 0.00182561 32.849 0.00380335C32.691 0.0080631 32.5315 0.0174954 32.3754 0.0454881C32.2189 0.0723077 32.0672 0.1223 31.9254 0.193819C31.6404 0.338814 31.4086 0.570527 31.2636 0.855601C31.192 0.997461 31.142 1.14925 31.1153 1.30592C31.087 1.46216 31.0777 1.62144 31.0735 1.77936C31.0716 1.85186 31.0705 1.92438 31.0701 1.99691C31.0698 2.08271 31.0698 2.16882 31.0698 2.25508V13.8656C31.0698 13.9519 31.0698 14.0379 31.0701 14.1241C31.0706 14.1965 31.0715 14.2691 31.0735 14.3417C31.0777 14.4993 31.0872 14.6587 31.1153 14.8148C31.1419 14.9715 31.1919 15.1233 31.2635 15.2651C31.3355 15.4068 31.4294 15.5362 31.5419 15.6485C31.6542 15.761 31.7836 15.855 31.9253 15.9269C32.0693 16.0004 32.2169 16.0471 32.3756 16.0755C32.5315 16.1034 32.691 16.1128 32.849 16.1171C32.9216 16.1187 32.994 16.1197 33.0666 16.1201C33.1525 16.1207 33.2388 16.1207 33.3249 16.1207H53.9961C54.0821 16.1207 54.1683 16.1207 54.2543 16.1201C54.3267 16.1198 54.3991 16.1187 54.472 16.1171C54.6298 16.1128 54.7892 16.1034 54.9456 16.0755C55.1022 16.0487 55.2538 15.9986 55.3956 15.9269C55.6805 15.7817 55.9122 15.5501 56.0574 15.2651C56.1309 15.1211 56.1774 14.9735 56.2056 14.8148C56.2338 14.6587 56.243 14.4993 56.2472 14.3417C56.2492 14.2691 56.2503 14.1965 56.2506 14.1241C56.2512 14.0379 56.2512 13.9519 56.2512 13.8656V2.25523C56.2512 2.16897 56.2512 2.08287 56.2506 1.99676C56.2503 1.92428 56.2492 1.85181 56.2472 1.77936C56.243 1.62144 56.2338 1.46216 56.2056 1.30592C56.1791 1.14922 56.1291 0.997413 56.0574 0.855601C55.9123 0.570577 55.6806 0.338883 55.3956 0.193819C55.2538 0.122374 55.1021 0.0724337 54.9456 0.0456402C54.7892 0.0174954 54.6298 0.00821523 54.472 0.00395548C54.3994 0.00211273 54.3269 0.000997022 54.2543 0.000608536C54.1683 0 54.0821 0 53.9961 0Z" fill="black"/>
<path d="M53.9964 0.537354L54.2507 0.53781C54.3195 0.538266 54.3884 0.539027 54.4576 0.540853C54.5783 0.5442 54.7192 0.550741 54.8506 0.574322C54.9647 0.59486 55.0605 0.626048 55.1524 0.672905C55.3363 0.7664 55.4857 0.915954 55.579 1.09995C55.6256 1.19123 55.6566 1.28646 55.6771 1.40163C55.7006 1.53155 55.7071 1.67288 55.7103 1.79413C55.7123 1.86259 55.7132 1.93105 55.7134 2.00103C55.7141 2.08577 55.7141 2.17036 55.7141 2.25525V13.8658C55.7141 13.9507 55.7141 14.0353 55.7135 14.1217C55.7132 14.1902 55.7123 14.2586 55.7105 14.3271C55.7071 14.4482 55.7006 14.5895 55.6768 14.721C55.6596 14.8255 55.6265 14.9268 55.5787 15.0214C55.4852 15.2055 55.3356 15.355 55.1515 15.4485C55.0602 15.495 54.9647 15.5262 54.8517 15.5466C54.7176 15.5705 54.5707 15.577 54.4601 15.5801C54.3906 15.5816 54.3213 15.5826 54.2503 15.5829C54.1658 15.5836 54.081 15.5836 53.9964 15.5836H33.3218C33.2381 15.5836 33.1545 15.5836 33.0693 15.5829C33.0008 15.5827 32.9323 15.5817 32.8639 15.5802C32.7507 15.5772 32.6037 15.5705 32.4708 15.5467C32.3657 15.5292 32.2638 15.4959 32.1686 15.4479C32.0774 15.4015 31.9941 15.3409 31.9219 15.2683C31.8495 15.196 31.789 15.1127 31.7427 15.0214C31.6949 14.9263 31.6617 14.8245 31.6444 14.7194C31.6207 14.5881 31.614 14.4474 31.6109 14.3272C31.6092 14.2585 31.6082 14.1898 31.6079 14.1211L31.6074 13.9192V2.202L31.6077 2.00043C31.608 1.9316 31.6091 1.86278 31.6108 1.79398C31.6141 1.67349 31.6207 1.53277 31.6445 1.40041C31.6619 1.29557 31.695 1.19396 31.7428 1.09903C31.7891 1.00806 31.8493 0.924991 31.9223 0.852119C31.9947 0.779628 32.0781 0.719041 32.1694 0.672601C32.2643 0.624918 32.3659 0.591788 32.4706 0.574322C32.6022 0.550741 32.7433 0.5442 32.864 0.540853C32.9328 0.539027 33.0017 0.538266 33.07 0.53781L33.3252 0.537354H53.9964Z" fill="white"/>
<path d="M37.689 5.44186C37.9026 5.17487 38.0474 4.81629 38.0092 4.44995C37.6967 4.46547 37.3155 4.65609 37.0946 4.92339C36.8964 5.1522 36.7209 5.52569 36.7666 5.87666C37.1174 5.90709 37.4679 5.70141 37.689 5.44186Z" fill="black"/>
<path d="M38.0053 5.94528C37.4957 5.91485 37.0627 6.23434 36.8194 6.23434C36.576 6.23434 36.2034 5.96049 35.8004 5.96795C35.276 5.97556 34.7895 6.27222 34.5233 6.74383C33.9759 7.68706 34.3787 9.0867 34.9112 9.85497C35.1697 10.2353 35.4813 10.6537 35.8917 10.6386C36.2797 10.6234 36.4316 10.3876 36.9029 10.3876C37.3741 10.3876 37.511 10.6386 37.9216 10.631C38.3473 10.6234 38.6135 10.2507 38.872 9.87034C39.1687 9.43676 39.2899 9.01839 39.2975 8.99557C39.2899 8.98796 38.4766 8.67593 38.469 7.74031C38.4614 6.95682 39.1077 6.58409 39.1381 6.56112C38.7731 6.02135 38.2029 5.96049 38.0052 5.94528" fill="black"/>
<path d="M43.0846 4.88507C44.1919 4.88507 44.963 5.64833 44.963 6.75951C44.963 7.87466 44.176 8.64187 43.0569 8.64187H41.831V10.5916H40.9453V4.88507H43.0846ZM41.831 7.89839H42.8473C43.6186 7.89839 44.0574 7.48322 44.0574 6.76347C44.0574 6.04388 43.6185 5.6325 42.8512 5.6325H41.831V7.89839Z" fill="black"/>
<path d="M45.1826 9.40908C45.1826 8.67747 45.7402 8.25834 46.7683 8.19505L47.8716 8.12781V7.81137C47.8716 7.34888 47.5672 7.09573 47.0254 7.09573C46.5784 7.09573 46.2541 7.325 46.1872 7.67688H45.3881C45.412 6.93751 46.1079 6.39972 47.0491 6.39972C48.0614 6.39972 48.7219 6.9296 48.7219 7.75219V10.5915H47.9034V9.90732H47.8836C47.6502 10.3541 47.136 10.6348 46.5784 10.6348C45.756 10.6348 45.1826 10.1446 45.1826 9.40908ZM47.8716 9.04137V8.72098L46.887 8.78427C46.3332 8.81987 46.0448 9.0254 46.0448 9.3852C46.0448 9.73328 46.3452 9.95874 46.8158 9.95874C47.4167 9.95874 47.8716 9.57506 47.8716 9.04137Z" fill="black"/>
<path d="M49.4744 12.1178V11.4338C49.5297 11.4416 49.6641 11.4495 49.7353 11.4495C50.1267 11.4495 50.3482 11.2836 50.4827 10.8563L50.5618 10.6033L49.063 6.45111H49.9883L51.0324 9.82027H51.0521L52.0961 6.45111H52.9978L51.4436 10.8128C51.0876 11.8134 50.6803 12.1417 49.8183 12.1417C49.7511 12.1417 49.5335 12.1338 49.4744 12.1178Z" fill="black"/>
</g>
<g clip-path="url(#clip2_125_673)">
<path opacity="0.07" d="M85.3065 0H63.812C62.6701 0 61.7969 0.873214 61.7969 2.01511V14.1058C61.7969 15.2477 62.7373 16.1209 63.812 16.1209H85.3065C86.4484 16.1209 87.3216 15.2477 87.3216 14.1058V2.01511C87.3216 0.873214 86.3812 0 85.3065 0Z" fill="black"/>
<path d="M85.3067 0.671692C86.0455 0.671692 86.6501 1.27622 86.6501 2.0151V14.1058C86.6501 14.8446 86.0455 15.4492 85.3067 15.4492H63.8122C63.0733 15.4492 62.4688 14.8446 62.4688 14.1058V2.0151C62.4688 1.27622 63.0733 0.671692 63.8122 0.671692H85.3067Z" fill="white"/>
<path d="M76.3058 2.95547C73.4846 2.01509 70.462 3.49283 69.4544 6.31399C68.4469 9.13514 69.9918 12.1578 72.8129 13.1654C75.6341 14.1729 78.6568 12.628 79.6643 9.80684C80.6047 6.98569 79.1269 3.96303 76.3058 2.95547Z" fill="#EDA024"/>
<path d="M72.6113 5.57513L72.8128 4.90342C73.2159 5.03776 73.686 5.1721 74.0891 5.37361C74.2234 5.03776 74.3578 4.70191 74.4249 4.29889L75.0295 4.5004L74.6936 5.50795L75.231 5.70947L75.5668 4.70191L76.1714 4.90342C76.037 5.23927 75.9027 5.57513 75.8355 5.97815L76.1042 6.11249C76.3057 6.24683 76.5072 6.38117 76.7087 6.58268C76.9102 6.78419 76.9774 6.9857 77.0446 7.25438C77.0446 7.45589 77.0446 7.65741 76.9102 7.85892C76.7759 8.19477 76.5744 8.39628 76.1714 8.46345H76.037C76.1714 8.53062 76.2385 8.59779 76.3057 8.73213C76.5744 9.00081 76.6415 9.26949 76.5744 9.67251C76.5744 9.73969 76.5744 9.80686 76.5072 9.87403C76.5072 9.9412 76.5072 9.9412 76.44 10.0084C76.3729 10.1427 76.3057 10.2099 76.3057 10.3442C76.1042 10.6801 75.7683 10.9488 75.2981 10.9488C74.9623 10.9488 74.6264 10.9488 74.3578 10.8816L74.0891 10.8144C73.9547 11.1503 73.8204 11.4861 73.7532 11.8891L73.1487 11.6876C73.283 11.3518 73.4174 11.0159 73.4845 10.6801L72.9472 10.4786C72.8128 10.8144 72.6785 11.1503 72.6113 11.4861L72.0068 11.2846C72.1411 10.9488 72.2755 10.6129 72.3426 10.2099L71.0664 9.80686L71.4694 9.06798C71.6038 9.13515 71.8053 9.20232 71.9396 9.20232C72.074 9.26949 72.2083 9.20232 72.2755 9.06798L73.2159 6.24683V6.17966C73.2159 5.97815 73.1487 5.84381 72.9472 5.84381C72.9472 5.70947 72.8128 5.6423 72.6113 5.57513ZM73.4174 9.60535C73.7532 9.73969 74.0219 9.80686 74.2906 9.87403C74.4921 9.9412 74.6264 9.9412 74.8279 9.9412C74.9623 9.9412 75.0295 9.9412 75.1638 9.87403C75.4996 9.67251 75.5668 9.20232 75.2981 8.93364L74.8951 8.59779C74.6936 8.46345 74.4249 8.39628 74.1562 8.32911C74.0891 8.32911 73.9547 8.26194 73.8876 8.19477L73.4174 9.60535ZM74.0891 7.52306C74.2906 7.59023 74.4249 7.65741 74.5593 7.65741C74.7608 7.72458 74.9623 7.79175 75.1638 7.72458C75.4325 7.72458 75.634 7.65741 75.7012 7.38872C75.7683 7.18721 75.7683 6.9857 75.7012 6.85136C75.634 6.71702 75.4996 6.64985 75.3653 6.58268C75.1638 6.44834 74.9623 6.38117 74.6936 6.314L74.4921 6.24683C74.4249 6.71702 74.2234 7.12004 74.0891 7.52306Z" fill="white"/>
</g>
<g clip-path="url(#clip3_125_673)">
<path opacity="0.07" d="M116.204 0H94.7099C94.1755 0 93.6629 0.212306 93.285 0.590212C92.9071 0.968118 92.6948 1.48067 92.6948 2.01511V14.1058C92.6948 14.6402 92.9071 15.1528 93.285 15.5307C93.6629 15.9086 94.1755 16.1209 94.7099 16.1209H116.204C116.739 16.1209 117.251 15.9086 117.629 15.5307C118.007 15.1528 118.22 14.6402 118.22 14.1058V2.01511C118.22 1.48067 118.007 0.968118 117.629 0.590212C117.251 0.212306 116.739 0 116.204 0V0Z" fill="black"/>
<path d="M116.205 0.671692C116.561 0.671692 116.903 0.813229 117.155 1.06517C117.406 1.3171 117.548 1.6588 117.548 2.0151V14.1058C117.548 14.4621 117.406 14.8038 117.155 15.0557C116.903 15.3076 116.561 15.4492 116.205 15.4492H94.7101C94.3538 15.4492 94.0121 15.3076 93.7602 15.0557C93.5082 14.8038 93.3667 14.4621 93.3667 14.1058V2.0151C93.3667 1.6588 93.5082 1.3171 93.7602 1.06517C94.0121 0.813229 94.3538 0.671692 94.7101 0.671692H116.205Z" fill="white"/>
<path d="M105.457 13.4341C108.425 13.4341 110.831 11.0282 110.831 8.06045C110.831 5.09268 108.425 2.68683 105.457 2.68683C102.489 2.68683 100.083 5.09268 100.083 8.06045C100.083 11.0282 102.489 13.4341 105.457 13.4341Z" fill="#8DC451"/>
<path d="M106.948 7.67758C107.065 7.44502 107.102 7.18107 107.056 6.92527C107.052 6.74841 107.01 6.57448 106.932 6.41563C106.854 6.25678 106.743 6.11682 106.605 6.00553C106.468 5.89425 106.308 5.81431 106.136 5.7713C105.964 5.72829 105.785 5.72324 105.612 5.75651L105.457 4.70193C105.456 4.6931 105.454 4.68451 105.45 4.67668C105.445 4.66885 105.44 4.66192 105.433 4.6563C105.426 4.65068 105.418 4.64647 105.41 4.64393C105.401 4.64139 105.392 4.64055 105.383 4.64148L104.994 4.70193C104.977 4.70666 104.963 4.7177 104.954 4.73274C104.945 4.74778 104.943 4.76563 104.947 4.78254L105.128 5.84383L104.644 5.93115L104.463 4.89673C104.462 4.88789 104.46 4.87931 104.456 4.87147C104.451 4.86364 104.446 4.85671 104.439 4.85109C104.432 4.84547 104.424 4.84127 104.416 4.83872C104.407 4.83618 104.398 4.83535 104.389 4.83627L104.027 4.90345C104.011 4.9081 103.998 4.91812 103.989 4.93167C103.981 4.94523 103.977 4.96143 103.98 4.97733L104.168 6.04534L103.147 6.2267C103.13 6.23142 103.116 6.24247 103.107 6.2575C103.098 6.27254 103.095 6.2904 103.1 6.30731L103.167 6.71704C103.168 6.72588 103.17 6.73447 103.174 6.7423C103.179 6.75013 103.184 6.75706 103.191 6.76268C103.198 6.7683 103.206 6.77251 103.214 6.77505C103.223 6.77759 103.232 6.77842 103.241 6.7775H103.301C103.37 6.77007 103.44 6.77637 103.506 6.79603C103.572 6.8157 103.634 6.84834 103.688 6.89206C103.742 6.93579 103.786 6.98973 103.819 7.05078C103.852 7.11182 103.872 7.17875 103.879 7.24769L104.268 9.40386C104.297 9.53185 104.279 9.66605 104.215 9.78113C104.152 9.89621 104.049 9.98422 103.926 10.0285C103.913 10.0326 103.901 10.0406 103.893 10.0514C103.884 10.0622 103.879 10.0753 103.879 10.089V10.5189C103.871 10.5383 103.871 10.5599 103.879 10.5793C103.887 10.5835 103.896 10.5856 103.906 10.5856C103.915 10.5856 103.924 10.5835 103.932 10.5793L104.94 10.4047L105.121 11.4391C105.125 11.4557 105.134 11.4705 105.148 11.4805C105.162 11.4904 105.178 11.4949 105.195 11.4929L105.558 11.4257C105.575 11.421 105.589 11.4099 105.598 11.3949C105.607 11.3798 105.609 11.362 105.605 11.3451L105.457 10.3375L105.934 10.2502L106.116 11.2846C106.119 11.3012 106.128 11.316 106.142 11.326C106.156 11.336 106.173 11.3404 106.189 11.3384L106.552 11.2779C106.569 11.2732 106.583 11.2621 106.592 11.2471C106.601 11.2321 106.603 11.2142 106.599 11.1973L106.418 10.1629L106.66 10.1226C106.835 10.0959 107.002 10.031 107.15 9.93233C107.298 9.8337 107.422 9.7038 107.513 9.55186C107.605 9.39992 107.662 9.22966 107.68 9.05317C107.699 8.87668 107.678 8.69828 107.62 8.53064C107.589 8.34266 107.511 8.16551 107.394 8.01534C107.276 7.86516 107.123 7.74674 106.948 7.67086V7.67758ZM104.786 6.75735L105.504 6.62972C105.641 6.6238 105.775 6.66774 105.882 6.75337C105.989 6.83899 106.06 6.96046 106.084 7.09518C106.108 7.22989 106.082 7.36867 106.011 7.4857C105.94 7.60272 105.829 7.69 105.699 7.73132L104.98 7.85894L104.786 6.75735ZM106.236 9.3434L105.276 9.51133L105.081 8.40974L106.042 8.24181C106.178 8.23589 106.312 8.27983 106.419 8.36545C106.526 8.45108 106.598 8.57255 106.622 8.70726C106.645 8.84198 106.62 8.98076 106.549 9.09778C106.478 9.2148 106.367 9.30209 106.236 9.3434Z" fill="white"/>
</g>
<g clip-path="url(#clip4_125_673)">
<path opacity="0.07" d="M147.103 0H125.608C124.466 0 123.593 0.873214 123.593 2.01511V14.1058C123.593 15.2477 124.534 16.1209 125.608 16.1209H147.103C148.245 16.1209 149.118 15.2477 149.118 14.1058V2.01511C149.118 0.873214 148.178 0 147.103 0Z" fill="black"/>
<path d="M147.103 0.671692C147.842 0.671692 148.446 1.27622 148.446 2.0151V14.1058C148.446 14.8446 147.842 15.4492 147.103 15.4492H125.609C124.87 15.4492 124.265 14.8446 124.265 14.1058V2.0151C124.265 1.27622 124.87 0.671692 125.609 0.671692H147.103Z" fill="white"/>
<path d="M136.356 13.5684C139.398 13.5684 141.864 11.1024 141.864 8.06046C141.864 5.01849 139.398 2.55249 136.356 2.55249C133.314 2.55249 130.848 5.01849 130.848 8.06046C130.848 11.1024 133.314 13.5684 136.356 13.5684Z" fill="#F5AC37"/>
<path d="M133.67 11.0576V11.0374V10.2515V9.19225C133.67 9.14792 133.67 9.1412 133.617 9.1412H132.884C132.844 9.1412 132.827 9.1412 132.827 9.08747V8.44666H133.609C133.654 8.44666 133.67 8.44666 133.67 8.3889V7.75481C133.67 7.71451 133.67 7.70443 133.616 7.70443H132.884C132.843 7.70443 132.827 7.70443 132.827 7.6507V7.05624C132.827 7.01929 132.827 7.00922 132.88 7.00922H133.606C133.657 7.00922 133.67 7.00922 133.67 6.94541V5.12644C133.67 5.0727 133.67 5.05927 133.737 5.05927H136.268C136.451 5.06604 136.634 5.08625 136.815 5.11972C137.186 5.18877 137.544 5.32124 137.87 5.51132C138.087 5.63881 138.286 5.79294 138.464 5.97009C138.597 6.10882 138.718 6.25896 138.825 6.41879C138.931 6.58084 139.02 6.75406 139.088 6.93533C139.092 6.958 139.105 6.97813 139.124 6.99134C139.143 7.00455 139.166 7.00977 139.189 7.00586H139.794C139.871 7.00586 139.871 7.00586 139.874 7.07975V7.63323C139.874 7.68697 139.854 7.7004 139.8 7.7004H139.335C139.288 7.7004 139.274 7.7004 139.277 7.76153C139.296 7.9671 139.296 8.17392 139.277 8.37949C139.277 8.43659 139.277 8.4433 139.342 8.4433H139.874C139.898 8.47353 139.874 8.50376 139.874 8.53398C139.878 8.57332 139.878 8.61287 139.874 8.6522V9.0606C139.874 9.11769 139.857 9.13449 139.807 9.13449H139.169C139.147 9.13066 139.125 9.13523 139.107 9.14723C139.089 9.15924 139.076 9.17777 139.071 9.19897C138.919 9.5939 138.677 9.94756 138.363 10.2314C138.248 10.3348 138.128 10.4317 138.002 10.5216C137.867 10.5988 137.735 10.6801 137.597 10.7439C137.342 10.8585 137.075 10.9435 136.801 10.9971C136.54 11.0436 136.276 11.065 136.011 11.0609H133.67V11.0576ZM138.329 9.14792C138.272 9.1412 138.214 9.1412 138.157 9.14792H134.416C134.365 9.14792 134.349 9.14792 134.349 9.21509V10.3865C134.349 10.4403 134.349 10.4537 134.416 10.4537H136.143C136.225 10.4599 136.308 10.4543 136.389 10.4369C136.64 10.4188 136.887 10.3643 137.122 10.275C137.207 10.2454 137.29 10.2071 137.368 10.1608H137.392C137.796 9.95027 138.125 9.61874 138.333 9.21241C138.333 9.21241 138.356 9.15867 138.329 9.14523V9.14792ZM138.329 7.0025C138.335 6.9874 138.335 6.97058 138.329 6.95548C138.296 6.88094 138.255 6.80966 138.208 6.74255C138.137 6.62863 138.053 6.52336 137.958 6.42887C137.913 6.37171 137.861 6.32067 137.803 6.27706C137.511 6.02849 137.164 5.85284 136.791 5.76455C136.603 5.7211 136.41 5.69946 136.217 5.70007H134.406C134.355 5.70007 134.348 5.72022 134.348 5.76455V6.9622C134.348 7.01258 134.348 7.02601 134.413 7.02601H138.306C138.306 7.02601 138.339 7.01929 138.346 6.99914L138.329 7.0025ZM136.44 8.44666H138.491C138.535 8.44666 138.555 8.44666 138.558 8.3889C138.575 8.18011 138.575 7.97031 138.558 7.76153C138.558 7.72122 138.538 7.70443 138.494 7.70443H134.413C134.362 7.70443 134.348 7.72122 134.348 7.76824V8.36606C134.348 8.44331 134.348 8.4433 134.429 8.4433L136.44 8.44666Z" fill="white"/>
</g>
<g clip-path="url(#clip5_125_673)">
<path opacity="0.07" d="M178.001 0H156.507C155.365 0 154.492 0.873214 154.492 2.01511V14.1058C154.492 15.2477 155.432 16.1209 156.507 16.1209H178.001C179.143 16.1209 180.016 15.2477 180.016 14.1058V2.01511C180.016 0.873214 179.076 0 178.001 0Z" fill="black"/>
<path d="M178.001 0.671692C178.74 0.671692 179.345 1.27622 179.345 2.0151V14.1058C179.345 14.8446 178.74 15.4492 178.001 15.4492H156.507C155.768 15.4492 155.164 14.8446 155.164 14.1058V2.0151C155.164 1.27622 155.768 0.671692 156.507 0.671692H178.001Z" fill="white"/>
<path d="M162.552 8.06044V10.5457C162.552 10.7473 162.418 10.7473 162.216 10.6801C160.94 10.1427 160.201 8.46347 160.671 7.05289C160.94 6.31402 161.477 5.70948 162.216 5.4408C162.485 5.30646 162.552 5.37363 162.552 5.57514V8.06044ZM163.896 8.06044V5.57514C163.896 5.37363 163.896 5.37363 164.097 5.4408C165.508 5.97816 166.246 7.65742 165.709 9.068C165.44 9.80687 164.903 10.4114 164.164 10.6801C163.896 10.8144 163.896 10.7473 163.896 10.5457V8.06044ZM168.732 3.35852H163.224C165.776 3.35852 167.791 5.4408 167.791 8.06044C167.791 10.6801 165.776 12.7624 163.224 12.7624H168.732C171.284 12.7624 173.299 10.6801 173.299 8.06044C173.299 5.4408 171.284 3.35852 168.732 3.35852Z" fill="#3086C8"/>
</g>
<g clip-path="url(#clip6_125_673)">
<path opacity="0.07" d="M208.9 0H187.405C186.263 0 185.39 0.873214 185.39 2.01511V14.1058C185.39 15.2477 186.331 16.1209 187.405 16.1209H208.9C210.042 16.1209 210.915 15.2477 210.915 14.1058V2.01511C210.915 0.873214 209.974 0 208.9 0Z" fill="black"/>
<path d="M208.9 0.671692C209.639 0.671692 210.243 1.27622 210.243 2.0151V14.1058C210.243 14.8446 209.639 15.4492 208.9 15.4492H187.405C186.667 15.4492 186.062 14.8446 186.062 14.1058V2.0151C186.062 1.27622 186.667 0.671692 187.405 0.671692H208.9Z" fill="white"/>
<path d="M187.788 4.80943H186.733V8.50379H187.788C188.345 8.50379 188.749 8.36945 189.105 8.08062C189.528 7.73133 189.776 7.20741 189.776 6.66333C189.769 5.56845 188.957 4.80943 187.788 4.80943ZM188.634 7.59028C188.406 7.79179 188.117 7.88583 187.647 7.88583H187.452V5.44083H187.647C188.11 5.44083 188.393 5.52143 188.634 5.73638C188.883 5.95804 189.031 6.30061 189.031 6.65661C189.031 7.01261 188.883 7.36861 188.634 7.59028ZM190.105 4.80943H190.824V8.50379H190.105V4.80943ZM192.584 6.22672C192.154 6.06551 192.026 5.95804 192.026 5.76324C192.026 5.52815 192.255 5.3535 192.564 5.3535C192.779 5.3535 192.96 5.44083 193.141 5.65577L193.518 5.16543C193.209 4.89675 192.839 4.75569 192.429 4.75569C191.778 4.75569 191.274 5.21245 191.274 5.81698C191.274 6.32747 191.509 6.58944 192.181 6.83125C192.463 6.93201 192.604 6.99918 192.678 7.03948C192.819 7.13352 192.893 7.26786 192.893 7.42235C192.893 7.72462 192.658 7.94628 192.335 7.94628C191.993 7.94628 191.717 7.77164 191.55 7.45594L191.086 7.90598C191.415 8.39632 191.818 8.61127 192.362 8.61127C193.108 8.61127 193.639 8.11421 193.639 7.39548C193.652 6.79767 193.403 6.52899 192.584 6.22672ZM193.874 6.66333C193.874 7.75149 194.727 8.59111 195.822 8.59111C196.131 8.59111 196.399 8.53066 196.722 8.37617V7.52982C196.433 7.81866 196.178 7.93285 195.855 7.93285C195.13 7.93285 194.612 7.40892 194.612 6.65661C194.612 5.9446 195.143 5.38709 195.822 5.38709C196.164 5.38709 196.426 5.508 196.722 5.80355V4.9572C196.406 4.79599 196.144 4.72882 195.835 4.72882C194.754 4.72882 193.874 5.5886 193.874 6.66333ZM202.445 7.29473L201.457 4.80943H200.671L202.236 8.59783H202.626L204.218 4.80943H203.439L202.445 7.29473ZM204.547 8.50379H206.589V7.87911H205.266V6.88499H206.542V6.2603H205.266V5.44083H206.589V4.80943H204.547V8.50379ZM209.444 5.9043C209.444 5.21245 208.967 4.81614 208.134 4.81614H207.066V8.51051H207.785V7.02605H207.879L208.873 8.51051H209.759L208.597 6.95216C209.141 6.83797 209.444 6.46853 209.444 5.9043ZM207.993 6.51555H207.785V5.39381H208.006C208.456 5.39381 208.698 5.58188 208.698 5.9446C208.698 6.31404 208.456 6.51555 207.993 6.51555Z" fill="#231F20"/>
<path d="M198.932 8.63809C199.454 8.63809 199.955 8.43066 200.324 8.06145C200.693 7.69223 200.9 7.19147 200.9 6.66932C200.9 6.14718 200.693 5.64641 200.324 5.2772C199.955 4.90798 199.454 4.70056 198.932 4.70056C198.41 4.70056 197.909 4.90798 197.54 5.2772C197.17 5.64641 196.963 6.14718 196.963 6.66932C196.963 7.19147 197.17 7.69223 197.54 8.06145C197.909 8.43066 198.41 8.63809 198.932 8.63809Z" fill="url(#paint0_linear_125_673)"/>
<path opacity="0.65" d="M198.932 8.63809C199.454 8.63809 199.955 8.43066 200.324 8.06145C200.693 7.69223 200.9 7.19147 200.9 6.66932C200.9 6.14718 200.693 5.64641 200.324 5.2772C199.955 4.90798 199.454 4.70056 198.932 4.70056C198.41 4.70056 197.909 4.90798 197.54 5.2772C197.17 5.64641 196.963 6.14718 196.963 6.66932C196.963 7.19147 197.17 7.69223 197.54 8.06145C197.909 8.43066 198.41 8.63809 198.932 8.63809Z" fill="url(#paint1_linear_125_673)"/>
<path d="M209.954 5.04159C209.954 4.97456 209.907 4.94104 209.833 4.94104H209.726V5.2628H209.807V5.13544L209.9 5.2628H209.994L209.887 5.12873C209.927 5.12203 209.954 5.08851 209.954 5.04159ZM209.82 5.08851H209.807V5.00137H209.82C209.86 5.00137 209.88 5.01478 209.88 5.04159C209.88 5.07511 209.86 5.08851 209.82 5.08851Z" fill="#231F20"/>
<path d="M209.847 4.82013C209.693 4.82013 209.565 4.94775 209.565 5.10224C209.565 5.25674 209.693 5.38436 209.847 5.38436C210.002 5.38436 210.129 5.25674 210.129 5.10224C210.129 4.94775 210.002 4.82013 209.847 4.82013ZM209.847 5.33734C209.726 5.33734 209.619 5.23659 209.619 5.10224C209.619 4.97462 209.719 4.86715 209.847 4.86715C209.968 4.86715 210.069 4.97462 210.069 5.10224C210.069 5.22987 209.968 5.33734 209.847 5.33734Z" fill="#231F20"/>
<path d="M210.243 8.72137C210.243 8.72137 203.587 13.3487 191.419 15.4492H208.899C209.254 15.4492 209.594 15.3091 209.845 15.0595C210.097 14.8099 210.24 14.4709 210.243 14.1165L210.259 12.088L210.243 8.72205V8.72137Z" fill="#F48120"/>
</g>
<g clip-path="url(#clip7_125_673)">
<path d="M240.28 16.0853H218.008C217.664 16.0842 217.334 15.947 217.091 15.7036C216.847 15.4602 216.71 15.1304 216.709 14.7862V1.909C216.71 1.56479 216.847 1.23498 217.091 0.991588C217.334 0.748194 217.664 0.610987 218.008 0.609924H240.28C240.624 0.610987 240.954 0.748194 241.197 0.991588C241.441 1.23498 241.578 1.56479 241.579 1.909V14.7862C241.578 15.1304 241.441 15.4602 241.197 15.7036C240.954 15.947 240.624 16.0842 240.28 16.0853Z" fill="white"/>
<path opacity="0.25" d="M240.269 16.4071H218.017C217.114 16.4071 216.381 15.6837 216.381 14.795V1.89834C216.381 1.00968 217.114 0.286255 218.017 0.286255H240.269C241.172 0.286255 241.906 1.00968 241.906 1.89834V14.795C241.906 15.6837 241.172 16.4071 240.269 16.4071ZM218.017 0.931089C217.476 0.931089 217.035 1.36501 217.035 1.89834V14.795C217.035 15.3284 217.476 15.7623 218.017 15.7623H240.269C240.811 15.7623 241.251 15.3284 241.251 14.795V1.89834C241.251 1.36501 240.811 0.931089 240.269 0.931089H218.017Z" fill="#A7A8AB"/>
<path d="M229.051 13.2117C231.896 13.2117 234.202 10.9054 234.202 8.06041C234.202 5.21543 231.896 2.90912 229.051 2.90912C226.206 2.90912 223.899 5.21543 223.899 8.06041C223.899 10.9054 226.206 13.2117 229.051 13.2117Z" fill="#CBA747"/>
<path d="M232.016 7.39141C231.818 6.21392 230.874 5.61274 230.396 5.45825C229.919 5.30577 226.761 5.36891 226.761 5.36891C226.689 5.45624 226.733 6.64381 226.733 6.64381L227.452 6.63978L227.466 7.55195H226.846C226.836 7.55186 226.827 7.55364 226.818 7.55719C226.81 7.56073 226.802 7.56598 226.795 7.57261C226.789 7.57923 226.783 7.58712 226.78 7.5958C226.776 7.60448 226.775 7.61378 226.775 7.62315V8.52323C226.775 8.56286 226.806 8.59443 226.846 8.59443H227.477C227.479 9.08007 227.473 9.46899 227.453 9.47638C227.399 9.49788 226.815 9.44683 226.757 9.48646C226.701 9.52407 226.732 10.228 226.732 10.4974C226.73 10.7667 226.803 10.7553 226.803 10.7553C230.151 10.67 230.07 10.9776 231.014 10.4121C231.957 9.84716 232.217 8.57025 232.017 7.39074L232.016 7.39141ZM228.451 9.47302V8.58301L229.526 8.59443C229.545 8.59461 229.563 8.58723 229.577 8.5739C229.591 8.56057 229.599 8.54236 229.599 8.52323V7.62315C229.599 7.60403 229.591 7.58582 229.577 7.57248C229.563 7.55915 229.545 7.55177 229.526 7.55195L228.451 7.55396V6.56052C228.451 6.56052 230.913 6.28781 230.913 8.13432C230.913 9.90896 228.451 9.47302 228.451 9.47302Z" fill="white"/>
</g>
<g clip-path="url(#clip8_125_673)">
<path d="M270.697 0H249.202C248.089 0 247.187 0.902195 247.187 2.01511V14.1058C247.187 15.2187 248.089 16.1209 249.202 16.1209H270.697C271.81 16.1209 272.712 15.2187 272.712 14.1058V2.01511C272.712 0.902195 271.81 0 270.697 0Z" fill="black" fill-opacity="0.07"/>
<path d="M270.697 0.671692H249.202C248.46 0.671692 247.859 1.27316 247.859 2.0151V14.1058C247.859 14.8477 248.46 15.4492 249.202 15.4492H270.697C271.439 15.4492 272.04 14.8477 272.04 14.1058V2.0151C272.04 1.27316 271.439 0.671692 270.697 0.671692Z" fill="white"/>
<path d="M259.719 2.85474L259.651 3.08715V9.82702L259.719 9.89486L262.848 8.04566L259.719 2.85474Z" fill="#343434"/>
<path d="M259.72 2.85474L256.591 8.04566L259.72 9.89553V6.62434V2.85474Z" fill="#8C8C8C"/>
<path d="M259.72 10.4873L259.681 10.5343V12.9357L259.72 13.0479L262.85 8.63947L259.72 10.4873Z" fill="#3C3C3B"/>
<path d="M259.72 13.0479V10.4873L256.591 8.63947L259.72 13.0479Z" fill="#8C8C8C"/>
<path d="M259.72 9.89485L262.848 8.04565L259.72 6.62366V9.89485Z" fill="#141414"/>
<path d="M256.591 8.04565L259.72 9.89485V6.62366L256.591 8.04565Z" fill="#393939"/>
</g>
<g clip-path="url(#clip9_125_673)">
<path opacity="0.07" d="M301.595 0H280.1C278.958 0 278.085 0.873214 278.085 2.01511V14.1058C278.085 15.2477 279.025 16.1209 280.1 16.1209H301.595C302.736 16.1209 303.61 15.2477 303.61 14.1058V2.01511C303.61 0.873214 302.669 0 301.595 0Z" fill="black"/>
<path d="M301.595 0.671692C302.334 0.671692 302.938 1.27622 302.938 2.0151V14.1058C302.938 14.8446 302.334 15.4492 301.595 15.4492H280.1C279.361 15.4492 278.757 14.8446 278.757 14.1058V2.0151C278.757 1.27622 279.361 0.671692 280.1 0.671692H301.595Z" fill="white"/>
<path fill-rule="evenodd" clip-rule="evenodd" d="M285.81 3.35852H288.161V11.0831C288.161 11.5285 287.984 11.9556 287.669 12.2705C287.354 12.5854 286.927 12.7624 286.481 12.7624H284.13V5.03778C284.13 4.59241 284.307 4.16529 284.622 3.85036C284.937 3.53544 285.364 3.35852 285.81 3.35852Z" fill="#006EBC"/>
<path fill-rule="evenodd" clip-rule="evenodd" d="M290.511 3.35852H292.862V11.0831C292.862 11.5285 292.685 11.9556 292.37 12.2705C292.055 12.5854 291.628 12.7624 291.183 12.7624H288.832V5.03778C288.832 4.59241 289.009 4.16529 289.324 3.85036C289.639 3.53544 290.066 3.35852 290.511 3.35852Z" fill="#F00036"/>
<path fill-rule="evenodd" clip-rule="evenodd" d="M295.213 3.35852H297.564V11.0831C297.564 11.5285 297.387 11.9556 297.073 12.2705C296.758 12.5854 296.331 12.7624 295.885 12.7624H293.534V5.03778C293.534 4.59241 293.711 4.16529 294.026 3.85036C294.341 3.53544 294.768 3.35852 295.213 3.35852Z" fill="#2AB419"/>
<path d="M285.309 9.7397C284.597 9.7397 283.884 9.5355 283.525 9.07673L284.049 8.62266C284.095 9.3837 286.43 9.45557 286.43 8.49503V6.38118H287.64V8.49503C287.64 8.98403 287.255 9.38303 286.584 9.59125C286.271 9.68798 285.667 9.7397 285.309 9.7397ZM290.76 9.7397C290.308 9.7397 289.828 9.66783 289.441 9.49386C288.804 9.20838 288.559 8.68378 288.567 8.01678C288.575 7.33568 288.86 6.81981 289.553 6.56254C290.439 6.23341 291.799 6.38723 292.191 6.7439V7.3968C291.806 7.04684 290.875 6.79361 290.23 7.08782C289.898 7.23962 289.735 7.70377 289.73 8.06044C289.726 8.4366 289.895 8.90141 290.23 9.06598C290.87 9.37967 291.835 9.09285 292.191 8.76976V9.44818C291.95 9.61947 291.349 9.7397 290.76 9.7397ZM296.59 8.002C296.839 7.84415 296.981 7.62115 296.981 7.32694C296.981 7.03274 296.903 6.86548 296.747 6.69621C296.609 6.55717 296.358 6.38118 295.916 6.38118H293.534V9.7397H295.916C296.383 9.7397 296.653 9.58521 296.799 9.46094C296.989 9.29302 297.085 9.10494 297.085 8.81611C297.085 8.5266 296.981 8.2062 296.59 8.002ZM295.31 7.81326H294.351V6.84332H295.355C295.997 6.84332 295.989 7.81326 295.31 7.81326ZM295.503 9.26212H294.351V8.24583H295.503C296.166 8.24583 296.231 9.26212 295.503 9.26212Z" fill="white"/>
</g>
<g clip-path="url(#clip10_125_673)">
<path d="M332.896 16.1209H310.595C309.722 16.1209 308.983 15.382 308.983 14.5088V1.61209C308.983 0.738873 309.722 0 310.595 0H332.896C333.769 0 334.508 0.738873 334.508 1.61209V14.5088C334.508 15.382 333.769 16.1209 332.896 16.1209Z" fill="white"/>
<path opacity="0.25" d="M332.896 16.1209H310.595C309.722 16.1209 308.983 15.382 308.983 14.5088V1.61209C308.983 0.738873 309.722 0 310.595 0H332.829C333.769 0 334.508 0.738873 334.508 1.61209V14.5088C334.508 15.382 333.769 16.1209 332.896 16.1209ZM310.595 0.671703C310.058 0.671703 309.655 1.07473 309.655 1.61209V14.5088C309.655 15.0462 310.058 15.4492 310.595 15.4492H332.829C333.366 15.4492 333.836 15.0462 333.836 14.5088V1.61209C333.836 1.07473 333.433 0.671703 332.896 0.671703H310.595Z" fill="#A8AAAD"/>
<path d="M321.746 13.5684C324.788 13.5684 327.254 11.1024 327.254 8.06046C327.254 5.01849 324.788 2.55249 321.746 2.55249C318.704 2.55249 316.238 5.01849 316.238 8.06046C316.238 11.1024 318.704 13.5684 321.746 13.5684Z" fill="#58595B"/>
<path d="M321.209 5.03778L320.403 8.06045L319.731 8.32913L319.529 9.068L320.201 8.79932L319.731 10.6129H324.366L324.634 9.53819H321.746L322.149 8.06045L322.955 7.79176L323.156 7.05289L322.35 7.38874L322.955 5.03778H321.209Z" fill="white"/>
</g>
<g clip-path="url(#clip11_125_673)">
<path opacity="0.07" d="M363.391 0H341.897C340.755 0 339.882 0.873214 339.882 2.01511V14.1058C339.882 15.2477 340.822 16.1209 341.897 16.1209H363.391C364.533 16.1209 365.407 15.2477 365.407 14.1058V2.01511C365.407 0.873214 364.466 0 363.391 0Z" fill="black"/>
<path d="M363.392 0.671692C364.13 0.671692 364.735 1.27622 364.735 2.0151V14.1058C364.735 14.8446 364.13 15.4492 363.392 15.4492H341.897C341.158 15.4492 340.554 14.8446 340.554 14.1058V2.0151C340.554 1.27622 341.158 0.671692 341.897 0.671692H363.392Z" fill="white"/>
<path d="M349.957 12.7624C352.554 12.7624 354.659 10.6572 354.659 8.06044C354.659 5.46364 352.554 3.35852 349.957 3.35852C347.36 3.35852 345.255 5.46364 345.255 8.06044C345.255 10.6572 347.36 12.7624 349.957 12.7624Z" fill="#EB001B"/>
<path d="M355.331 12.7624C357.928 12.7624 360.033 10.6572 360.033 8.06044C360.033 5.46364 357.928 3.35852 355.331 3.35852C352.734 3.35852 350.629 5.46364 350.629 8.06044C350.629 10.6572 352.734 12.7624 355.331 12.7624Z" fill="#F79E1B"/>
<path d="M354.659 8.06046C354.659 6.44837 353.853 5.03779 352.644 4.23175C351.435 5.10496 350.629 6.51554 350.629 8.06046C350.629 9.60538 351.435 11.0831 352.644 11.8892C353.853 11.0831 354.659 9.67255 354.659 8.06046Z" fill="#FF5F00"/>
</g>
<g clip-path="url(#clip12_125_673)">
<path opacity="0.07" d="M394.29 0H372.795C371.653 0 370.78 0.873214 370.78 2.01511V14.1058C370.78 15.2477 371.721 16.1209 372.795 16.1209H394.29C395.432 16.1209 396.305 15.2477 396.305 14.1058V2.01511C396.305 0.873214 395.365 0 394.29 0Z" fill="black"/>
<path d="M394.29 0.671692C395.029 0.671692 395.633 1.27622 395.633 2.0151V14.1058C395.633 14.8446 395.029 15.4492 394.29 15.4492H372.796C372.057 15.4492 371.452 14.8446 371.452 14.1058V2.0151C371.452 1.27622 372.057 0.671692 372.796 0.671692H394.29Z" fill="white"/>
<path d="M386.834 5.57514C386.968 4.90344 386.834 4.43325 386.431 4.03022C386.028 3.56003 385.289 3.35852 384.349 3.35852H381.595C381.393 3.35852 381.259 3.49286 381.192 3.69437L380.184 10.4786C380.184 10.6129 380.251 10.7473 380.386 10.7473H382.199L382.468 8.46347L383.677 6.98572L386.834 5.57514Z" fill="#003087"/>
<path d="M386.834 5.57513L386.7 5.70947C386.364 7.59024 385.222 8.26195 383.61 8.26195H382.871C382.67 8.26195 382.535 8.39629 382.468 8.5978L382.065 11.2174L381.931 11.8891C381.931 12.0235 381.998 12.1578 382.132 12.1578H383.543C383.744 12.1578 383.879 12.0235 383.879 11.8891V11.822L384.147 10.2099V10.1427C384.147 10.0084 384.349 9.87403 384.483 9.87403H384.685C386.095 9.87403 387.17 9.33667 387.439 7.72458C387.573 7.05288 387.506 6.51552 387.17 6.1125C387.103 5.77665 386.968 5.6423 386.834 5.57513Z" fill="#3086C8"/>
<path d="M386.431 5.44083C386.364 5.37366 386.296 5.37366 386.229 5.37366C386.162 5.37366 386.095 5.37366 386.028 5.30649C385.826 5.23932 385.558 5.23932 385.289 5.23932H383.274C383.207 5.23932 383.139 5.23932 383.139 5.30649C383.005 5.37366 382.938 5.44083 382.938 5.57517L382.468 8.53066V8.59784C382.468 8.39632 382.669 8.26198 382.871 8.26198H383.744C385.423 8.26198 386.498 7.59028 386.834 5.70951V5.57517C386.767 5.508 386.632 5.44083 386.498 5.44083H386.431Z" fill="#012169"/>
</g>
<g clip-path="url(#clip13_125_673)">
<path opacity="0.07" d="M425.188 0H403.694C402.552 0 401.679 0.873214 401.679 2.01511V14.1058C401.679 15.2477 402.619 16.1209 403.694 16.1209H425.188C426.33 16.1209 427.203 15.2477 427.203 14.1058V2.01511C427.203 0.873214 426.263 0 425.188 0Z" fill="black"/>
<path d="M425.188 0.671692C425.927 0.671692 426.532 1.27622 426.532 2.0151V14.1058C426.532 14.8446 425.927 15.4492 425.188 15.4492H403.694C402.955 15.4492 402.351 14.8446 402.351 14.1058V2.0151C402.351 1.27622 402.955 0.671692 403.694 0.671692H425.188Z" fill="white"/>
<path d="M414.441 13.5684C417.483 13.5684 419.949 11.1024 419.949 8.06046C419.949 5.01849 417.483 2.55249 414.441 2.55249C411.399 2.55249 408.933 5.01849 408.933 8.06046C408.933 11.1024 411.399 13.5684 414.441 13.5684Z" fill="#1652F0"/>
<path d="M415.771 8.76842C415.771 8.07321 415.348 7.83879 414.53 7.72594C413.926 7.63862 413.808 7.49756 413.808 7.21545C413.808 6.93333 414.013 6.75735 414.405 6.75735C414.761 6.75735 414.967 6.88094 415.051 7.16843C415.06 7.1998 415.079 7.22745 415.105 7.24729C415.131 7.26713 415.163 7.27811 415.195 7.27859H415.508C415.529 7.27886 415.549 7.27465 415.568 7.26625C415.586 7.25784 415.603 7.24546 415.616 7.22995C415.629 7.21445 415.639 7.19622 415.645 7.17653C415.65 7.15685 415.651 7.1362 415.648 7.11603C415.549 6.66263 415.243 6.38925 414.763 6.30395V5.82569C414.763 5.78626 414.748 5.74843 414.72 5.72049C414.692 5.69254 414.654 5.67675 414.615 5.67657H414.316C414.276 5.67657 414.238 5.69229 414.211 5.72025C414.183 5.74822 414.167 5.78614 414.167 5.82569V6.28715C413.572 6.37112 413.195 6.76406 413.195 7.26918C413.195 7.92073 413.593 8.17464 414.423 8.28681C414.987 8.37951 415.148 8.50176 415.148 8.82216C415.148 9.14323 414.875 9.35818 414.49 9.35818C413.971 9.35818 413.795 9.13114 413.736 8.83627C413.729 8.80235 413.711 8.77182 413.685 8.74979C413.658 8.72777 413.624 8.71561 413.59 8.71536H413.251C413.23 8.71508 413.21 8.71926 413.192 8.72759C413.173 8.73593 413.157 8.74822 413.144 8.7636C413.131 8.77897 413.121 8.79706 413.115 8.81658C413.11 8.8361 413.109 8.85658 413.112 8.87657C413.2 9.37363 413.518 9.73635 414.167 9.82367V10.2952C414.167 10.3348 414.183 10.3727 414.211 10.4006C414.238 10.4286 414.276 10.4443 414.316 10.4443H414.615C414.654 10.4441 414.692 10.4284 414.72 10.4004C414.748 10.3725 414.763 10.3346 414.763 10.2952V9.82501C415.379 9.72694 415.771 9.30176 415.771 8.76842Z" fill="white"/>
<path d="M413.313 11.1483C412.68 10.9166 412.134 10.4962 411.748 9.94383C411.362 9.3915 411.155 8.73395 411.155 8.06013C411.155 7.38631 411.362 6.72876 411.748 6.17643C412.134 5.6241 412.68 5.20365 413.313 4.97197C413.353 4.95412 413.388 4.92529 413.413 4.88874C413.438 4.85218 413.452 4.80935 413.454 4.76509V4.45745C413.457 4.43028 413.453 4.40287 413.441 4.378C413.43 4.35313 413.412 4.33167 413.39 4.31579C413.368 4.29992 413.342 4.29018 413.315 4.28757C413.288 4.28497 413.26 4.28958 413.235 4.30094C412.438 4.55516 411.742 5.05637 411.248 5.73212C410.754 6.40787 410.488 7.22316 410.488 8.06013C410.488 8.8971 410.754 9.71239 411.248 10.3881C411.742 11.0639 412.438 11.5651 413.235 11.8193C413.26 11.8307 413.288 11.8353 413.315 11.8327C413.342 11.8301 413.368 11.8203 413.39 11.8045C413.412 11.7886 413.43 11.7671 413.441 11.7423C413.453 11.7174 413.457 11.69 413.454 11.6628V11.3565C413.453 11.3122 413.438 11.2693 413.414 11.2326C413.389 11.1959 413.354 11.167 413.313 11.149L413.313 11.1483ZM415.646 4.30161C415.621 4.29047 415.594 4.28602 415.567 4.28872C415.54 4.29143 415.514 4.30118 415.492 4.31701C415.47 4.33284 415.452 4.3542 415.441 4.37896C415.429 4.40372 415.425 4.43101 415.427 4.45812V4.76509C415.429 4.8094 415.443 4.85229 415.468 4.88887C415.493 4.92545 415.528 4.95425 415.569 4.97197C416.202 5.20352 416.748 5.62396 417.135 6.17636C417.521 6.72877 417.728 7.38648 417.728 8.06047C417.728 8.73445 417.521 9.39216 417.135 9.94457C416.748 10.497 416.202 10.9174 415.569 11.149C415.527 11.1649 415.491 11.1934 415.466 11.2305C415.441 11.2676 415.427 11.3116 415.428 11.3565V11.6635C415.425 11.6906 415.43 11.7179 415.441 11.7426C415.453 11.7674 415.47 11.7888 415.492 11.8046C415.515 11.8204 415.541 11.8302 415.568 11.8329C415.595 11.8356 415.622 11.8311 415.647 11.82C416.444 11.5658 417.14 11.0646 417.634 10.3888C418.128 9.71306 418.394 8.89777 418.394 8.0608C418.394 7.22383 418.128 6.40855 417.634 5.73279C417.14 5.05704 416.444 4.55583 415.647 4.30161H415.646Z" fill="white"/>
</g>
<g clip-path="url(#clip14_125_673)">
<path d="M456.087 0H434.592C433.479 0 432.577 0.902195 432.577 2.01511V14.1058C432.577 15.2187 433.479 16.1209 434.592 16.1209H456.087C457.2 16.1209 458.102 15.2187 458.102 14.1058V2.01511C458.102 0.902195 457.2 0 456.087 0Z" fill="black" fill-opacity="0.07"/>
<path fill-rule="evenodd" clip-rule="evenodd" d="M456.087 0.671692C456.826 0.671692 457.43 1.27622 457.43 2.0151V14.1058C457.43 14.8446 456.826 15.4492 456.087 15.4492H434.592C433.854 15.4492 433.249 14.8446 433.249 14.1058V2.0151C433.249 1.27622 433.854 0.671692 434.592 0.671692H456.087Z" fill="#3D95CE"/>
<path d="M449.152 5.6154C449.152 7.6735 447.434 10.3476 446.04 12.225H442.856L441.578 4.41305L444.366 4.14303L445.041 9.70137C445.673 8.64949 446.451 6.99777 446.451 5.87132C446.451 5.2547 446.348 4.83488 446.187 4.48896L448.726 3.96301C449.019 4.45873 449.152 4.9699 449.152 5.6154Z" fill="white"/>
</g>
<g clip-path="url(#clip15_125_673)">
<path opacity="0.07" d="M486.985 0H465.49C464.348 0 463.475 0.873214 463.475 2.01511V14.1058C463.475 15.2477 464.415 16.1209 465.49 16.1209H486.985C488.127 16.1209 489 15.2477 489 14.1058V2.01511C489 0.873214 488.059 0 486.985 0Z" fill="black"/>
<path d="M486.985 0.671692C487.724 0.671692 488.328 1.27622 488.328 2.0151V14.1058C488.328 14.8446 487.724 15.4492 486.985 15.4492H465.49C464.752 15.4492 464.147 14.8446 464.147 14.1058V2.0151C464.147 1.27622 464.752 0.671692 465.49 0.671692H486.985Z" fill="white"/>
<path d="M482.484 6.78417H482.283C482.014 7.45588 481.812 7.79173 481.611 8.79928H482.887C482.686 7.79173 482.686 7.32154 482.484 6.78417ZM484.432 10.7472H483.29C483.223 10.7472 483.223 10.7472 483.156 10.6801L483.022 10.0755L482.954 9.94118H481.342C481.275 9.94118 481.208 9.94118 481.208 10.0755L481.006 10.6801C481.006 10.7472 480.939 10.7472 480.939 10.7472H479.529L479.663 10.4114L481.611 5.84379C481.611 5.50794 481.812 5.3736 482.148 5.3736H483.156C483.223 5.3736 483.29 5.3736 483.29 5.50794L484.231 9.87401C484.298 10.1427 484.365 10.3442 484.365 10.6129C484.432 10.6801 484.432 10.6801 484.432 10.7472ZM475.431 10.5457L475.7 9.33665C475.767 9.33665 475.834 9.40382 475.834 9.40382C476.305 9.60533 476.775 9.73967 477.245 9.6725C477.379 9.6725 477.581 9.60533 477.715 9.53816C478.051 9.40382 478.051 9.06796 477.782 8.79928C477.648 8.66494 477.446 8.59777 477.245 8.46343C476.976 8.32909 476.708 8.19475 476.506 7.99324C475.7 7.32154 475.969 6.38115 476.439 5.91096C476.842 5.64228 477.043 5.3736 477.581 5.3736C478.387 5.3736 479.26 5.3736 479.663 5.50794H479.73C479.663 5.91096 479.596 6.24681 479.462 6.64983C479.126 6.51549 478.79 6.38115 478.454 6.38115C478.252 6.38115 478.051 6.38115 477.849 6.44832C477.715 6.44832 477.648 6.51549 477.581 6.58266C477.446 6.717 477.446 6.91851 477.581 7.05285L477.917 7.32154C478.185 7.45588 478.454 7.59022 478.655 7.72456C478.991 7.92607 479.327 8.26192 479.394 8.66494C479.529 9.26947 479.327 9.80684 478.79 10.2099C478.454 10.4785 478.32 10.6129 477.849 10.6129C476.909 10.6129 476.17 10.6801 475.566 10.4785C475.498 10.6129 475.498 10.6129 475.431 10.5457ZM473.08 10.7472C473.148 10.277 473.148 10.277 473.215 10.0755C473.551 8.59777 473.886 7.05285 474.155 5.57511C474.222 5.44077 474.222 5.3736 474.357 5.3736H475.566C475.431 6.17964 475.297 6.78417 475.095 7.52305C474.894 8.5306 474.692 9.53816 474.424 10.5457C474.424 10.6801 474.357 10.6801 474.222 10.6801L473.08 10.7472ZM466.833 5.50794C466.833 5.44077 466.968 5.3736 467.035 5.3736H469.319C469.655 5.3736 469.923 5.57511 469.991 5.91096L470.595 8.86645C470.595 8.93362 470.595 8.93362 470.662 9.00079C470.662 8.93362 470.729 8.93362 470.729 8.93362L472.14 5.50794C472.073 5.44077 472.14 5.3736 472.207 5.3736H473.618C473.618 5.44077 473.618 5.44077 473.551 5.50794L471.468 10.4114C471.401 10.5457 471.401 10.6129 471.334 10.6801C471.267 10.7472 471.132 10.6801 470.998 10.6801H469.991C469.923 10.6801 469.856 10.6801 469.856 10.5457L468.781 6.38115C468.647 6.24681 468.446 6.0453 468.177 5.97813C467.774 5.77662 467.035 5.64228 466.901 5.64228L466.833 5.50794Z" fill="#142688"/>
</g>
<defs>
<linearGradient id="paint0_linear_125_673" x1="199.937" y1="8.24514" x2="198.577" y2="6.11517" gradientUnits="userSpaceOnUse">
<stop stop-color="#F89F20"/>
<stop offset="0.25" stop-color="#F79A20"/>
<stop offset="0.533" stop-color="#F68D20"/>
<stop offset="0.62" stop-color="#F58720"/>
<stop offset="0.723" stop-color="#F48120"/>
<stop offset="1" stop-color="#F37521"/>
</linearGradient>
<linearGradient id="paint1_linear_125_673" x1="199.723" y1="8.21626" x2="197.735" y2="4.32978" gradientUnits="userSpaceOnUse">
<stop stop-color="#F58720"/>
<stop offset="0.359" stop-color="#E16F27"/>
<stop offset="0.703" stop-color="#D4602C"/>
<stop offset="0.982" stop-color="#D05B2E"/>
</linearGradient>
<clipPath id="clip0_125_673">
<rect width="25.5247" height="16.1209" fill="white"/>
</clipPath>
<clipPath id="clip1_125_673">
<rect width="25.5247" height="16.1209" fill="white" transform="translate(30.8984)"/>
</clipPath>
<clipPath id="clip2_125_673">
<rect width="25.5247" height="16.1209" fill="white" transform="translate(61.7969)"/>
</clipPath>
<clipPath id="clip3_125_673">
<rect width="25.5247" height="16.1209" fill="white" transform="translate(92.6948)"/>
</clipPath>
<clipPath id="clip4_125_673">
<rect width="25.5247" height="16.1209" fill="white" transform="translate(123.593)"/>
</clipPath>
<clipPath id="clip5_125_673">
<rect width="25.5247" height="16.1209" fill="white" transform="translate(154.492)"/>
</clipPath>
<clipPath id="clip6_125_673">
<rect width="25.5247" height="16.1209" fill="white" transform="translate(185.39)"/>
</clipPath>
<clipPath id="clip7_125_673">
<rect width="25.5247" height="16.1209" fill="white" transform="translate(216.289)"/>
</clipPath>
<clipPath id="clip8_125_673">
<rect width="25.5247" height="16.1209" fill="white" transform="translate(247.187)"/>
</clipPath>
<clipPath id="clip9_125_673">
<rect width="25.5247" height="16.1209" fill="white" transform="translate(278.085)"/>
</clipPath>
<clipPath id="clip10_125_673">
<rect width="25.5247" height="16.1209" fill="white" transform="translate(308.983)"/>
</clipPath>
<clipPath id="clip11_125_673">
<rect width="25.5247" height="16.1209" fill="white" transform="translate(339.882)"/>
</clipPath>
<clipPath id="clip12_125_673">
<rect width="25.5247" height="16.1209" fill="white" transform="translate(370.78)"/>
</clipPath>
<clipPath id="clip13_125_673">
<rect width="25.5247" height="16.1209" fill="white" transform="translate(401.679)"/>
</clipPath>
<clipPath id="clip14_125_673">
<rect width="25.5247" height="16.1209" fill="white" transform="translate(432.577)"/>
</clipPath>
<clipPath id="clip15_125_673">
<rect width="25.5247" height="16.1209" fill="white" transform="translate(463.475)"/>
</clipPath>
</defs>
</svg>
